<?xml version="1.0" encoding="UTF-8"?>
<!DOCTYPE svg PUBLIC "-//W3C//DTD SVG 1.1//EN" "http://www.w3.org/Graphics/SVG/1.1/DTD/svg11.dtd">
<!-- Creator: CorelDRAW -->
<svg xmlns="http://www.w3.org/2000/svg" xml:space="preserve" width="26.9783mm" height="15.3857mm" version="1.1" style="shape-rendering:geometricPrecision; text-rendering:geometricPrecision; image-rendering:optimizeQuality; fill-rule:evenodd; clip-rule:evenodd"
viewBox="0 0 476.02 271.47"
 xmlns:xlink="http://www.w3.org/1999/xlink"
 xmlns:xodm="http://www.corel.com/coreldraw/odm/2003">
 <defs>
  <style type="text/css">
   <![CDATA[
    .fil0 {fill:#ED3238;fill-rule:nonzero}
    .fil1 {fill:#09365F;fill-rule:nonzero}
   ]]>
  </style>
 </defs>
 <g id="Capa_x0020_1">
  <metadata id="CorelCorpID_0Corel-Layer"/>
  <path class="fil0" d="M376.2 135.73c0,-19.58 -15.87,-35.44 -35.44,-35.44 -19.57,0 -35.44,15.86 -35.44,35.44 0,19.57 15.87,35.44 35.44,35.44 19.57,0 35.44,-15.87 35.44,-35.44z"/>
  <path class="fil1" d="M340.29 0c-74.96,0 -135.74,60.77 -135.74,135.74 0,0.24 0.02,0.49 0.03,0.73l-0.07 0.15c-0.48,37.59 -31.07,67.94 -68.77,67.94 -38.01,0 -68.82,-30.81 -68.82,-68.81 0,-38.01 30.81,-68.82 68.82,-68.82 23.96,0 45.04,12.26 57.36,30.84l22.86 -71.5c-22.47,-16.5 -50.2,-26.26 -80.22,-26.26 -74.97,0 -135.74,60.77 -135.74,135.74 0,74.96 60.77,135.73 135.74,135.73 73.87,0 133.92,-59.03 135.65,-132.48l0.25 0.13c-0.06,-1.13 -0.17,-2.25 -0.17,-3.39 0,-38.01 30.81,-68.82 68.81,-68.82 38,0 68.81,30.81 68.81,68.82 0,38 -30.81,68.81 -68.81,68.81 -23.65,0 -44.5,-11.94 -56.89,-30.11l-22.8 71.16c22.38,16.26 49.9,25.88 79.69,25.88 74.96,0 135.73,-60.77 135.73,-135.73 0,-74.97 -60.77,-135.74 -135.73,-135.74z"/>
 </g>
</svg>
