<?xml version="1.0" encoding="UTF-8"?>
<!DOCTYPE svg PUBLIC "-//W3C//DTD SVG 1.1//EN" "http://www.w3.org/Graphics/SVG/1.1/DTD/svg11.dtd">
<!-- Creator: CorelDRAW -->
<svg xmlns="http://www.w3.org/2000/svg" xml:space="preserve" width="70.9659mm" height="15.3857mm" version="1.1" style="shape-rendering:geometricPrecision; text-rendering:geometricPrecision; image-rendering:optimizeQuality; fill-rule:evenodd; clip-rule:evenodd"
viewBox="0 0 2976.7 645.36"
 xmlns:xlink="http://www.w3.org/1999/xlink"
 xmlns:xodm="http://www.corel.com/coreldraw/odm/2003">
 <defs>
  <style type="text/css">
   <![CDATA[
    .fil0 {fill:#ED3238;fill-rule:nonzero}
    .fil2 {fill:black;fill-rule:nonzero}
    .fil1 {fill:#09365F;fill-rule:nonzero}
   ]]>
  </style>
 </defs>
 <g id="Capa_x0020_1">
  <metadata id="CorelCorpID_0Corel-Layer"/>
  <path class="fil0" d="M894.31 322.65c0,-46.54 -37.72,-84.24 -84.24,-84.24 -46.52,0 -84.26,37.7 -84.26,84.24 0,46.53 37.73,84.24 84.26,84.24 46.52,0 84.24,-37.72 84.24,-84.24z"/>
  <path class="fil1" d="M808.94 0c-178.21,0 -322.69,144.47 -322.69,322.69 0,0.58 0.06,1.15 0.08,1.73l-0.16 0.36c-1.14,89.36 -73.85,161.5 -163.48,161.5 -90.35,0 -163.6,-73.25 -163.6,-163.59 0,-90.35 73.25,-163.6 163.6,-163.6 56.95,0 107.07,29.15 136.36,73.32l54.34 -169.98c-53.42,-39.23 -119.34,-62.43 -190.7,-62.43 -178.22,0 -322.69,144.47 -322.69,322.69 0,178.21 144.46,322.67 322.69,322.67 175.6,0 318.35,-140.32 322.48,-314.93l0.59 0.31c-0.13,-2.69 -0.4,-5.34 -0.4,-8.05 0,-90.35 73.25,-163.6 163.58,-163.6 90.34,0 163.59,73.25 163.59,163.6 0,90.34 -73.25,163.59 -163.59,163.59 -56.22,0 -105.79,-28.38 -135.23,-71.59l-54.2 169.16c53.21,38.65 118.63,61.51 189.43,61.51 178.21,0 322.67,-144.47 322.67,-322.67 0,-178.22 -144.47,-322.69 -322.67,-322.69z"/>
  <path class="fil2" d="M1433.69 375.17c-48.07,0 -86.71,-14.89 -115.92,-44.68 -29.22,-29.79 -43.82,-67.28 -43.82,-112.46 0,-44.61 14.97,-81.81 44.9,-111.6 29.94,-29.79 68.22,-44.68 114.84,-44.68 33.67,0 63.03,8.49 88.07,25.47l-20.72 64.76c-21.01,-14.1 -42.6,-21.16 -64.76,-21.16 -26.48,0 -47.35,8.35 -62.6,25.04 -15.26,16.69 -22.88,37.42 -22.88,62.17 0,24.75 7.63,45.62 22.88,62.6 15.26,16.98 36.12,25.47 62.6,25.47 23.02,0 45.04,-7.05 66.05,-21.16l20.73 64.76c-25.04,16.98 -54.83,25.47 -89.37,25.47zm144.2 -33.46c-23.03,-22.31 -34.54,-50.58 -34.54,-84.83 0,-34.25 11.73,-62.75 35.19,-85.48 23.46,-22.74 52.74,-34.11 87.86,-34.11 36.27,0 66.05,11.15 89.37,33.46 23.31,22.31 34.97,50.73 34.97,85.27 0,34.25 -11.8,62.67 -35.4,85.27 -23.6,22.6 -53.25,33.89 -88.94,33.89 -35.98,0 -65.48,-11.15 -88.5,-33.46zm37.56 -84.83c0,16.4 4.82,29.65 14.46,39.72 9.64,10.08 21.8,15.11 36.48,15.11 14.97,0 27.42,-5.25 37.34,-15.76 9.93,-10.51 14.89,-23.82 14.89,-39.94 0,-16.4 -4.97,-29.72 -14.89,-39.94 -9.93,-10.21 -22.38,-15.32 -37.34,-15.32 -14.97,0 -27.2,5.18 -36.7,15.54 -9.5,10.36 -14.25,23.89 -14.25,40.58zm43.61 -200.32l74.69 0 -43.17 62.6 -60.01 0 28.49 -62.6zm291.85 80.73l0 73.4c-4.03,-0.57 -7.92,-0.86 -11.66,-0.86 -31.08,0 -46.63,19.86 -46.63,59.58l0 100.16 -72.1 0 0 -226.66 70.38 0 0 30.22c11.8,-23.89 31.8,-35.83 60.01,-35.83zm187.37 119.59c0,-17.56 -4.46,-31.3 -13.38,-41.23 -8.92,-9.93 -20.73,-14.89 -35.4,-14.89 -14.68,0 -26.48,5.18 -35.4,15.54 -8.92,10.36 -13.38,23.89 -13.38,40.58 0,16.69 4.46,30.08 13.38,40.15 8.92,10.08 20.72,15.11 35.4,15.11 14.97,0 26.84,-5.26 35.62,-15.76 8.78,-10.51 13.17,-23.67 13.17,-39.5zm2.59 112.68l0 -17.7c-4.61,5.18 -12.3,10.36 -23.1,15.54 -10.8,5.18 -23.53,7.77 -38.21,7.77 -32.52,0 -59.15,-11.08 -79.87,-33.24 -20.72,-22.16 -31.09,-50.66 -31.09,-85.48 0,-35.4 9.71,-64.11 29.14,-86.13 19.43,-22.02 45.4,-33.03 77.93,-33.03 14.97,0 27.78,2.59 38.43,7.77 10.65,5.18 17.99,10.22 22.02,15.11l0 -102.75 72.1 0 0 312.14 -67.35 0zm131.68 -27.85c-23.03,-22.31 -34.54,-50.58 -34.54,-84.83 0,-34.25 11.73,-62.75 35.19,-85.48 23.46,-22.74 52.74,-34.11 87.86,-34.11 36.27,0 66.05,11.15 89.37,33.46 23.31,22.31 34.97,50.73 34.97,85.27 0,34.25 -11.8,62.67 -35.4,85.27 -23.6,22.6 -53.25,33.89 -88.94,33.89 -35.98,0 -65.48,-11.15 -88.5,-33.46zm37.56 -84.83c0,16.4 4.82,29.65 14.46,39.72 9.64,10.08 21.8,15.11 36.48,15.11 14.97,0 27.42,-5.25 37.34,-15.76 9.93,-10.51 14.89,-23.82 14.89,-39.94 0,-16.4 -4.97,-29.72 -14.89,-39.94 -9.93,-10.21 -22.38,-15.32 -37.34,-15.32 -14.97,0 -27.2,5.18 -36.7,15.54 -9.5,10.36 -14.25,23.89 -14.25,40.58zm275.02 0c0,15.83 4.39,29 13.17,39.5 8.78,10.5 20.65,15.76 35.62,15.76 14.68,0 26.48,-5.04 35.4,-15.11 8.93,-10.07 13.38,-23.46 13.38,-40.15 0,-16.69 -4.46,-30.22 -13.38,-40.58 -8.92,-10.36 -20.72,-15.54 -35.4,-15.54 -14.68,0 -26.48,4.96 -35.4,14.89 -8.92,9.93 -13.38,23.67 -13.38,41.23zm-2.59 94.98l0 17.7 -67.35 0 0 -312.14 72.1 0 0 102.75c4.03,-4.89 11.37,-9.93 22.02,-15.11 10.65,-5.18 23.46,-7.77 38.42,-7.77 32.52,0 58.5,11.01 77.93,33.03 19.43,22.02 29.14,50.73 29.14,86.13 0,34.83 -10.36,63.32 -31.09,85.48 -20.72,22.16 -47.34,33.24 -79.87,33.24 -14.68,0 -27.42,-2.59 -38.21,-7.77 -10.79,-5.18 -18.49,-10.36 -23.1,-15.54zm190.39 -52.67c0,-22.74 7.99,-40.94 23.96,-54.61 15.97,-13.67 37.34,-20.51 64.11,-20.51 16.12,0 30.65,2.73 43.6,8.2l0 -8.2c0,-7.2 -2.95,-13.1 -8.85,-17.7 -5.9,-4.61 -14.46,-6.91 -25.69,-6.91 -18.42,0 -37.42,4.75 -56.99,14.24l-26.77 -48.35c28.21,-18.71 59,-28.07 92.39,-28.07 36.55,0 62.02,8.13 76.42,24.4 14.39,16.26 21.59,38.78 21.59,67.57l0 140.31 -64.33 0 -3.88 -12.52c-12.09,12.09 -29.22,18.13 -51.38,18.13 -23.6,0 -43.53,-6.76 -59.79,-20.29 -16.26,-13.53 -24.39,-32.09 -24.39,-55.69zm80.73 -20.08c-5.75,4.46 -8.64,10.29 -8.64,17.48 0,7.2 2.88,12.88 8.64,17.06 5.75,4.17 13.1,6.26 22.02,6.26 8.92,0 16.19,-2.01 21.8,-6.04 5.61,-4.03 8.42,-9.79 8.42,-17.27 0,-7.48 -2.88,-13.38 -8.63,-17.7 -5.76,-4.32 -13.1,-6.48 -22.02,-6.48 -8.63,0 -15.83,2.23 -21.59,6.69z"/>
  <path class="fil2" d="M1404.29 511.3c0,-23.86 0.19,-40.49 0.57,-49.88l-0.43 0c-0.86,2.87 -2.2,6.95 -4.02,12.22 -1.82,5.27 -4.17,11.64 -7.05,19.11 -2.87,7.47 -5.51,14.33 -7.9,20.56 -2.4,6.23 -5.42,14.01 -9.06,23.36 -3.64,9.34 -6.28,16.17 -7.91,20.48l-9.77 0c-19.45,-52.7 -30.76,-84.66 -33.93,-95.87l-0.29 0c0.67,11.02 1,28.7 1,53.04l0 42.83 -10.21 0 0 -103.35 15.81 0c17.92,46.67 28.94,76.76 33.06,90.27l0.29 0c1.15,-4.12 5.47,-15.84 12.94,-35.15 7.47,-19.31 14.76,-37.68 21.85,-55.12l15.38 0 0 103.35 -10.35 0 0 -45.85zm116 5.03c0,6.23 0.81,11.57 2.45,16.03 1.63,4.45 3.85,7.86 6.68,10.21 2.83,2.34 5.82,4.02 8.98,5.03 3.16,1.01 6.66,1.51 10.49,1.51 4.31,0 8.1,-0.5 11.35,-1.51 3.26,-1.01 6.23,-2.73 8.91,-5.18 2.68,-2.44 4.69,-5.84 6.04,-10.21 1.34,-4.36 2.01,-9.65 2.01,-15.88l0 -62.53 10.78 0 0 61.95c0,28.36 -13.13,42.55 -39.39,42.55 -5.46,0 -10.47,-0.74 -15.02,-2.23 -4.55,-1.48 -8.67,-3.78 -12.36,-6.9 -3.69,-3.11 -6.56,-7.42 -8.62,-12.94 -2.06,-5.51 -3.09,-11.95 -3.09,-19.33l0 -63.1 10.78 0 0 62.53zm162.14 12.5c3.07,13.8 12.32,20.7 27.74,20.7 8.33,0 14.49,-1.75 18.47,-5.25 3.98,-3.5 5.96,-8.12 5.96,-13.87 0,-5.94 -1.87,-10.61 -5.6,-14.01 -3.74,-3.4 -10.83,-6.4 -21.27,-8.98 -11.59,-2.87 -19.84,-6.44 -24.72,-10.71 -4.89,-4.27 -7.33,-10.09 -7.33,-17.47 0,-7.66 2.85,-14.06 8.55,-19.19 5.7,-5.13 13.92,-7.69 24.65,-7.69 5.65,0 10.69,0.79 15.1,2.37 4.4,1.58 7.95,3.69 10.63,6.33 2.68,2.63 4.77,5.49 6.25,8.55 1.48,3.07 2.42,6.33 2.8,9.77l-10.78 0c-2.68,-11.98 -10.83,-17.97 -24.43,-17.97 -3.45,0 -6.54,0.38 -9.27,1.15 -2.73,0.77 -5.01,1.87 -6.83,3.31 -1.82,1.44 -3.21,3.23 -4.17,5.39 -0.96,2.16 -1.44,4.58 -1.44,7.26 0,5.18 1.8,9.1 5.39,11.79 3.59,2.68 10.18,5.18 19.76,7.47 7,1.72 12.84,3.76 17.54,6.11 4.69,2.35 8.19,4.94 10.49,7.76 2.3,2.83 3.86,5.6 4.67,8.33 0.81,2.73 1.22,5.87 1.22,9.42 0,8.44 -3.09,15.36 -9.27,20.77 -6.18,5.42 -15.16,8.12 -26.95,8.12 -6.23,0 -11.74,-0.81 -16.53,-2.44 -4.79,-1.63 -8.65,-3.88 -11.57,-6.76 -2.92,-2.87 -5.2,-5.99 -6.83,-9.35 -1.63,-3.35 -2.73,-6.99 -3.31,-10.92l11.07 0zm161.57 28.32l-10.49 0 0 -103.35 10.49 0 0 103.35zm174.36 -28.46c-2.59,9.1 -7.19,16.31 -13.8,21.63 -6.61,5.32 -15.34,7.98 -26.16,7.98 -9.77,0 -18.16,-2.4 -25.15,-7.19 -7,-4.79 -12.17,-11.09 -15.52,-18.9 -3.36,-7.81 -5.03,-16.65 -5.03,-26.52 0,-7.19 0.99,-13.94 2.95,-20.27 1.96,-6.33 4.79,-11.98 8.48,-16.96 3.69,-4.98 8.53,-8.91 14.52,-11.79 5.99,-2.87 12.67,-4.31 20.05,-4.31 7.47,0 14.06,1.34 19.76,4.02 5.7,2.68 10.16,6.25 13.37,10.71 3.21,4.46 5.39,9.66 6.54,15.6l-10.49 0c-2.3,-6.71 -5.8,-11.91 -10.49,-15.6 -4.69,-3.69 -11.07,-5.53 -19.11,-5.53 -4.7,0 -9.01,0.81 -12.94,2.45 -3.93,1.63 -7.21,3.85 -9.84,6.68 -2.63,2.83 -4.84,6.13 -6.61,9.92 -1.77,3.78 -3.07,7.76 -3.88,11.93 -0.81,4.17 -1.22,8.51 -1.22,13.01 0,3.65 0.29,7.19 0.86,10.64 0.57,3.45 1.43,6.83 2.59,10.13 1.15,3.31 2.68,6.33 4.6,9.06 1.92,2.73 4.14,5.13 6.69,7.19 2.54,2.06 5.53,3.67 8.98,4.82 3.45,1.15 7.24,1.72 11.36,1.72 7.66,0 13.75,-1.8 18.25,-5.39 4.5,-3.59 8.05,-8.6 10.64,-15.02l10.64 0zm264.34 28.46c-0.57,-1.34 -0.96,-6.47 -1.15,-15.38 -6.33,11.12 -17.25,16.67 -32.77,16.67 -9.68,0 -17.97,-2.3 -24.87,-6.9 -6.9,-4.6 -12,-10.78 -15.31,-18.54 -3.31,-7.76 -4.96,-16.63 -4.96,-26.59 0,-10.44 1.75,-19.69 5.25,-27.74 3.5,-8.05 8.86,-14.45 16.1,-19.19 7.24,-4.74 15.84,-7.11 25.8,-7.11 11.4,0 20.7,2.78 27.89,8.34 7.19,5.56 11.59,13.12 13.22,22.71l-10.63 0c-4.31,-14.57 -14.57,-21.85 -30.76,-21.85 -4.89,0 -9.32,0.74 -13.3,2.23 -3.98,1.48 -7.35,3.57 -10.13,6.25 -2.78,2.68 -5.1,5.89 -6.97,9.63 -1.87,3.74 -3.23,7.79 -4.1,12.15 -0.86,4.36 -1.29,9.08 -1.29,14.16 0,4.6 0.41,8.98 1.22,13.15 0.82,4.17 2.16,8.1 4.03,11.79 1.87,3.69 4.14,6.87 6.83,9.56 2.68,2.68 5.96,4.79 9.84,6.33 3.88,1.53 8.22,2.3 13.01,2.3 4.79,0 9.04,-0.62 12.72,-1.87 3.69,-1.25 6.69,-2.92 8.98,-5.03 2.3,-2.11 4.17,-4.74 5.61,-7.91 1.43,-3.16 2.44,-6.49 3.02,-9.99 0.57,-3.5 0.86,-7.4 0.86,-11.72l0 -1.15 -31.48 0 0 -9.34 41.69 0 0 55.05 -8.34 0zm111.4 0l-10.64 0 0 -103.35 38.67 0c10.06,0 17.85,2.49 23.36,7.47 5.51,4.98 8.27,11.64 8.27,19.98 0,6.42 -1.68,11.72 -5.03,15.88 -3.35,4.17 -7.86,6.97 -13.51,8.41 5.37,1.25 9.53,3.93 12.51,8.05 2.97,4.12 4.45,10.35 4.45,18.69l0 4.17c0,0.86 -0.03,2.32 -0.07,4.38 -0.05,2.06 -0.07,3.69 -0.07,4.89 0,1.2 0.05,2.61 0.14,4.24 0.1,1.63 0.24,3.04 0.43,4.24 0.19,1.2 0.48,2.18 0.86,2.95l-10.49 0c-0.29,-0.57 -0.53,-1.25 -0.72,-2.01 -0.19,-0.77 -0.34,-1.68 -0.43,-2.73 -0.1,-1.05 -0.19,-1.96 -0.29,-2.73 -0.1,-0.77 -0.14,-1.89 -0.14,-3.38 0,-1.48 -0.03,-2.59 -0.07,-3.31 -0.05,-0.72 -0.05,-2.01 0,-3.88 0.05,-1.87 0.07,-3.14 0.07,-3.81l0 -2.44c0,-8.34 -1.65,-14.23 -4.96,-17.68 -3.31,-3.45 -9.61,-5.17 -18.9,-5.17l-23.43 0 0 47.15zm23.86 -56.2c8.43,0 14.66,-1.58 18.69,-4.74 4.02,-3.16 6.04,-7.95 6.04,-14.37 0,-3.07 -0.48,-5.75 -1.43,-8.05 -0.96,-2.3 -2.4,-4.27 -4.32,-5.89 -1.91,-1.63 -4.31,-2.85 -7.19,-3.67 -2.87,-0.81 -6.18,-1.22 -9.92,-1.22l-25.73 0 0 37.95 23.86 0zm167.46 -48.59c14.19,0 25.52,4.89 34,14.66 8.48,9.78 12.72,22.33 12.72,37.66 0,7.28 -1.01,14.11 -3.02,20.48 -2.01,6.37 -4.93,12.08 -8.77,17.11 -3.83,5.03 -8.84,9.01 -15.02,11.93 -6.18,2.92 -13.15,4.39 -20.92,4.39 -7.28,0 -13.89,-1.37 -19.84,-4.1 -5.94,-2.73 -10.85,-6.52 -14.73,-11.35 -3.88,-4.84 -6.85,-10.47 -8.91,-16.89 -2.06,-6.42 -3.09,-13.32 -3.09,-20.7 0,-10.06 1.77,-19.04 5.32,-26.95 3.55,-7.91 8.98,-14.25 16.32,-19.05 7.33,-4.79 15.98,-7.19 25.94,-7.19zm-0.43 9.34c-6.04,0 -11.4,1.17 -16.1,3.52 -4.69,2.35 -8.48,5.56 -11.35,9.63 -2.87,4.07 -5.03,8.65 -6.47,13.73 -1.44,5.08 -2.16,10.54 -2.16,16.38 0,7.96 1.32,15.21 3.95,21.78 2.64,6.56 6.73,11.95 12.29,16.17 5.56,4.22 12.12,6.33 19.69,6.33 4.98,0 9.49,-0.79 13.51,-2.37 4.02,-1.58 7.42,-3.74 10.21,-6.47 2.78,-2.73 5.1,-5.97 6.97,-9.7 1.87,-3.74 3.21,-7.76 4.02,-12.08 0.81,-4.31 1.22,-8.86 1.22,-13.66 0,-7.95 -1.27,-15.14 -3.81,-21.56 -2.54,-6.42 -6.56,-11.64 -12.07,-15.67 -5.51,-4.03 -12.15,-6.04 -19.91,-6.04zm146.33 54.63c0,6.23 0.81,11.57 2.45,16.03 1.63,4.45 3.85,7.86 6.68,10.21 2.83,2.34 5.82,4.02 8.98,5.03 3.16,1.01 6.66,1.51 10.49,1.51 4.31,0 8.1,-0.5 11.35,-1.51 3.26,-1.01 6.23,-2.73 8.91,-5.18 2.68,-2.44 4.69,-5.84 6.04,-10.21 1.34,-4.36 2.01,-9.65 2.01,-15.88l0 -62.53 10.78 0 0 61.95c0,28.36 -13.13,42.55 -39.39,42.55 -5.46,0 -10.47,-0.74 -15.02,-2.23 -4.55,-1.48 -8.67,-3.78 -12.36,-6.9 -3.69,-3.11 -6.56,-7.42 -8.62,-12.94 -2.06,-5.51 -3.09,-11.95 -3.09,-19.33l0 -63.1 10.78 0 0 62.53zm200.09 -62.53c9.77,0 17.65,2.61 23.64,7.83 5.99,5.22 8.98,12.39 8.98,21.49 0,9.49 -3.07,16.89 -9.2,22.21 -6.13,5.32 -14.32,7.98 -24.58,7.98l-26.3 0 0 43.84 -10.64 0 0 -103.35 38.09 0zm-1.01 50.16c7.57,0 13.23,-1.8 16.96,-5.39 3.74,-3.59 5.6,-8.64 5.6,-15.16 0,-6.42 -1.99,-11.43 -5.96,-15.02 -3.98,-3.59 -9.32,-5.39 -16.03,-5.39l-27.03 0 0 40.96 26.45 0z"/>
 </g>
</svg>
